<?xml version="1.0" encoding="UTF-8"?>
<svg id="Camada_2" data-name="Camada 2" xmlns="http://www.w3.org/2000/svg" viewBox="0 0 562.67 200.49">
  <defs>
    <style>
      .cls-1 {
        fill: #9dde5e;
      }

      .cls-2 {
        fill: #1e8eda;
      }
    </style>
  </defs>
  <g id="conteudo">
    <g>
      <path class="cls-2" d="M243.59,56.35h24.52c10.24,0,17.88,2.14,22.89,6.42s7.53,10,7.53,17.16c0,9.68-4.18,16.46-12.53,20.31l15.37,30.31h-16.74l-12.32-27.05c-.91.07-2.32.11-4.21.11h-8.21v26.95h-16.31V56.35ZM259.91,70.77v18.42h8.21c5.33,0,9.28-.68,11.84-2.05,2.56-1.37,3.84-3.77,3.84-7.21s-1.28-5.82-3.84-7.16c-2.56-1.33-6.51-2-11.84-2h-8.21Z"/>
      <path class="cls-2" d="M314.64,79.35c5.75-5.72,12.91-8.58,21.47-8.58s15.72,2.86,21.47,8.58c5.75,5.72,8.63,13.04,8.63,21.95s-2.88,16.25-8.63,22c-5.76,5.76-12.91,8.63-21.47,8.63s-15.72-2.88-21.47-8.63c-5.76-5.75-8.63-13.09-8.63-22s2.88-16.23,8.63-21.95ZM346.96,89.19c-2.88-3.16-6.49-4.74-10.84-4.74s-7.98,1.58-10.89,4.74c-2.91,3.16-4.37,7.19-4.37,12.11s1.46,8.96,4.37,12.16c2.91,3.2,6.54,4.79,10.89,4.79s7.96-1.6,10.84-4.79c2.88-3.19,4.31-7.24,4.31-12.16s-1.44-8.95-4.31-12.11Z"/>
      <path class="cls-2" d="M378.43,56.14h14.84v15.89h15.16v14.1h-15.16v20.63c0,1.62.07,3.02.21,4.21.14,1.19.42,2.39.84,3.58.42,1.19,1.09,2.11,2,2.74.91.63,2.07.95,3.48.95,1.61,0,3.16-.26,4.63-.79s2.53-1.07,3.16-1.63l1.05-.74,4.84,11.16c-.35.42-.9.95-1.63,1.58-.74.63-2.38,1.47-4.95,2.53s-5.35,1.58-8.37,1.58c-3.58,0-6.67-.6-9.26-1.79-2.6-1.19-4.58-2.68-5.95-4.47-1.37-1.79-2.44-4.14-3.21-7.05-.77-2.91-1.25-5.61-1.42-8.1-.18-2.49-.26-5.56-.26-9.21v-15.16h-9.58v-14.1h9.58v-15.89Z"/>
      <path class="cls-2" d="M446.74,70.77c5.68,0,10.47,1.88,14.37,5.63,3.89,3.75,5.84,9.63,5.84,17.63v36.52h-15.37v-7.47c-4.28,5.89-10.46,8.84-18.52,8.84-4.77,0-9.04-1.44-12.79-4.32-3.75-2.88-5.63-6.88-5.63-12,0-6.81,2.35-11.98,7.05-15.53,4.7-3.54,10.38-5.32,17.05-5.32h12.95v-.63c0-6.17-2.67-9.26-8-9.26-2.74,0-5.46.39-8.16,1.16-2.7.77-4.72,1.54-6.05,2.32l-2,1.16-5.79-11.26c.28-.21.67-.47,1.16-.79.49-.32,1.56-.91,3.21-1.79s3.39-1.65,5.21-2.32,4.14-1.26,6.95-1.79c2.81-.53,5.65-.79,8.53-.79ZM439.37,104.98c-6.18,0-9.26,2.74-9.26,8.21,0,2.25.75,4.02,2.26,5.32,1.51,1.3,3.67,1.95,6.47,1.95,3.65,0,6.68-1.6,9.11-4.79,2.42-3.19,3.63-6.23,3.63-9.1v-1.58h-12.21Z"/>
      <path class="cls-1" d="M191.07,187.15c0,4.42-1.49,7.75-4.48,9.99-2.99,2.24-7.17,3.35-12.55,3.35-3.02,0-5.94-.4-8.78-1.21-2.84-.8-4.91-1.61-6.22-2.41l-1.96-1.21,4.52-8.44c.4.25.98.59,1.73,1.02.75.43,2.21.98,4.37,1.66,2.16.68,4.27,1.02,6.33,1.02,2.51,0,4.21-.33,5.09-.98s1.32-1.53,1.32-2.64-.77-2.05-2.3-2.83c-1.54-.78-3.39-1.49-5.58-2.15-2.19-.65-4.37-1.41-6.56-2.26-2.19-.85-4.05-2.14-5.58-3.84-1.53-1.71-2.3-3.79-2.3-6.26,0-4.22,1.58-7.49,4.75-9.8,3.17-2.31,6.96-3.47,11.38-3.47,2.71,0,5.34.42,7.88,1.24s4.38,1.67,5.54,2.52l1.73,1.21-4.3,8.14c-.35-.25-.83-.56-1.43-.94s-1.86-.89-3.77-1.55c-1.91-.65-3.79-.98-5.65-.98-3.62,0-5.43,1.05-5.43,3.17,0,.86.76,1.62,2.3,2.3s3.39,1.34,5.58,2c2.19.65,4.36,1.45,6.52,2.37,2.16.93,4.01,2.33,5.54,4.18,1.53,1.86,2.3,4.12,2.3,6.78Z"/>
      <path class="cls-1" d="M195.59,157.6h11.01v22.91c0,6.58,2.41,9.88,7.23,9.88,2.36,0,4.41-.51,6.14-1.55,1.73-1.03,2.98-2.45,3.73-4.26v-26.99h11v41.91h-11v-5.65c-1.61,2.06-3.67,3.68-6.18,4.86-2.51,1.18-5,1.77-7.46,1.77-3.82,0-7.19-1.39-10.1-4.18-2.92-2.79-4.37-6.49-4.37-11.12v-27.59Z"/>
      <path class="cls-1" d="M273.15,187.15c0,4.42-1.49,7.75-4.48,9.99-2.99,2.24-7.17,3.35-12.55,3.35-3.02,0-5.94-.4-8.78-1.21-2.84-.8-4.91-1.61-6.22-2.41l-1.96-1.21,4.52-8.44c.4.25.98.59,1.73,1.02.75.43,2.21.98,4.37,1.66,2.16.68,4.27,1.02,6.33,1.02,2.51,0,4.21-.33,5.09-.98s1.32-1.53,1.32-2.64-.77-2.05-2.3-2.83c-1.54-.78-3.39-1.49-5.58-2.15-2.19-.65-4.37-1.41-6.56-2.26-2.19-.85-4.05-2.14-5.58-3.84-1.53-1.71-2.3-3.79-2.3-6.26,0-4.22,1.58-7.49,4.75-9.8,3.17-2.31,6.96-3.47,11.38-3.47,2.71,0,5.34.42,7.88,1.24s4.38,1.67,5.54,2.52l1.73,1.21-4.3,8.14c-.35-.25-.83-.56-1.43-.94s-1.86-.89-3.77-1.55c-1.91-.65-3.79-.98-5.65-.98-3.62,0-5.43,1.05-5.43,3.17,0,.86.76,1.62,2.3,2.3s3.39,1.34,5.58,2c2.19.65,4.36,1.45,6.52,2.37,2.16.93,4.01,2.33,5.54,4.18,1.53,1.86,2.3,4.12,2.3,6.78Z"/>
      <path class="cls-1" d="M281.97,146.22h10.63v11.38h10.85v10.1h-10.85v14.77c0,1.16.05,2.16.15,3.02.1.85.3,1.71.6,2.56.3.85.78,1.51,1.43,1.96.65.45,1.48.68,2.49.68,1.16,0,2.26-.19,3.32-.57s1.81-.77,2.26-1.17l.75-.53,3.47,7.99c-.25.3-.64.68-1.17,1.13-.53.45-1.71,1.06-3.54,1.81-1.83.75-3.83,1.13-5.99,1.13-2.56,0-4.77-.43-6.63-1.28-1.86-.85-3.28-1.92-4.26-3.2-.98-1.28-1.75-2.96-2.3-5.05-.55-2.08-.89-4.02-1.02-5.8-.13-1.78-.19-3.98-.19-6.6v-10.86h-6.86v-10.1h6.86v-11.38Z"/>
      <path class="cls-1" d="M327.8,156.7c5.48,0,10.09,1.85,13.83,5.54,3.74,3.69,5.61,8.98,5.61,15.87,0,1.51-.05,2.66-.15,3.47h-30c.5,2.76,1.72,4.96,3.66,6.6,1.93,1.63,4.23,2.45,6.9,2.45,3.97,0,6.98-1.68,9.05-5.05l9.42,4.75c-1.91,3.17-4.47,5.65-7.69,7.46-3.22,1.81-6.81,2.71-10.78,2.71-6.13,0-11.26-2.06-15.38-6.18-4.12-4.12-6.18-9.37-6.18-15.75s2.08-11.62,6.26-15.72c4.17-4.1,9.32-6.14,15.45-6.14ZM327.65,166.5c-2.16,0-4.12.59-5.88,1.77-1.76,1.18-3.07,2.8-3.92,4.86h18.39c0-1.56-.67-3.05-2-4.48s-3.53-2.15-6.6-2.15Z"/>
      <path class="cls-1" d="M376.27,156.7c3.82,0,7.2,1.41,10.14,4.22,2.94,2.81,4.41,6.53,4.41,11.16v27.44h-11v-22.84c0-6.58-2.41-9.87-7.24-9.87-2.36,0-4.41.51-6.14,1.54-1.73,1.03-2.98,2.45-3.73,4.26v26.91h-11.01v-41.91h11.01v5.73c1.61-2.06,3.65-3.68,6.14-4.86,2.49-1.18,4.96-1.77,7.42-1.77Z"/>
      <path class="cls-1" d="M400.76,146.22h10.63v11.38h10.85v10.1h-10.85v14.77c0,1.16.05,2.16.15,3.02.1.85.3,1.71.6,2.56.3.85.78,1.51,1.43,1.96.65.45,1.48.68,2.49.68,1.16,0,2.26-.19,3.32-.57s1.81-.77,2.26-1.17l.75-.53,3.47,7.99c-.25.3-.64.68-1.17,1.13-.53.45-1.71,1.06-3.54,1.81s-3.83,1.13-5.99,1.13c-2.56,0-4.77-.43-6.63-1.28-1.86-.85-3.28-1.92-4.26-3.2-.98-1.28-1.75-2.96-2.3-5.05-.55-2.08-.89-4.02-1.02-5.8s-.19-3.98-.19-6.6v-10.86h-6.86v-10.1h6.86v-11.38Z"/>
      <path class="cls-1" d="M449.68,156.7c4.07,0,7.51,1.35,10.33,4.03,2.81,2.69,4.22,6.9,4.22,12.63v26.16h-11.08v-5.35c-3.07,4.22-7.49,6.33-13.27,6.33-3.42,0-6.47-1.03-9.16-3.09-2.69-2.06-4.03-4.92-4.03-8.59,0-4.87,1.68-8.58,5.05-11.12,3.37-2.54,7.44-3.81,12.21-3.81h9.27v-.45c0-4.42-1.91-6.63-5.73-6.63-1.96,0-3.91.28-5.84.83-1.93.55-3.38,1.11-4.33,1.66l-1.43.83-4.15-8.06c.2-.15.48-.34.83-.57.35-.23,1.12-.65,2.3-1.28,1.18-.63,2.42-1.18,3.73-1.66,1.31-.48,2.96-.9,4.98-1.28,2.01-.38,4.04-.57,6.11-.57ZM444.41,181.19c-4.47,0-6.71,1.96-6.71,5.88,0,1.61.55,2.88,1.66,3.81,1.1.93,2.66,1.4,4.67,1.4,2.61,0,4.79-1.14,6.52-3.43,1.73-2.29,2.6-4.46,2.6-6.52v-1.13h-8.74ZM451.12,137.4h10.1l-7.99,15.45h-7.09l4.98-15.45Z"/>
      <path class="cls-1" d="M467.62,157.6h11.01l8.59,25.55,8.52-25.55h11l-14.1,41.91h-11l-14.02-41.91Z"/>
      <path class="cls-1" d="M527.78,156.7c5.48,0,10.09,1.85,13.83,5.54,3.74,3.69,5.62,8.98,5.62,15.87,0,1.51-.05,2.66-.15,3.47h-30c.5,2.76,1.72,4.96,3.65,6.6,1.93,1.63,4.23,2.45,6.9,2.45,3.97,0,6.98-1.68,9.05-5.05l9.42,4.75c-1.91,3.17-4.47,5.65-7.69,7.46-3.21,1.81-6.81,2.71-10.78,2.71-6.13,0-11.26-2.06-15.38-6.18-4.12-4.12-6.18-9.37-6.18-15.75s2.09-11.62,6.26-15.72c4.17-4.1,9.32-6.14,15.45-6.14ZM527.62,166.5c-2.16,0-4.12.59-5.88,1.77-1.76,1.18-3.07,2.8-3.92,4.86h18.39c0-1.56-.67-3.05-2-4.48-1.33-1.43-3.53-2.15-6.6-2.15Z"/>
      <path class="cls-1" d="M551.67,142.6h11.01v56.91h-11.01v-56.91Z"/>
      <g>
        <path class="cls-2" d="M151.21,0l26.5,11.19,13-9.71c5.43.16,5.93.82,5.93.82,1.32,4.94-1.81,7.74-1.81,7.74l-9.05,9.71,9.22,28.15-4.77,4.12-13-23.05-22.22,17.12,6.75,11.36-5.1,4.61-10.86-15.64-12.68-10.04,4.28-2.8,12.18,5.43,17.61-19.1-21.4-14.82,5.43-5.1Z"/>
        <polygon class="cls-2" points=".76 100.15 0 70.95 5.69 51.61 23.13 31.52 41.71 21.66 59.91 19.38 75.84 19.38 92.14 22.42 108.45 34.17 120.96 46.69 128.92 61.47 113.37 72.85 98.97 81.95 82.66 89.53 61.43 98.63 40.95 102.42 .76 100.15"/>
        <polygon class="cls-1" points="131.2 67.75 133.47 88.98 126.27 109.84 117.55 131.07 97.07 164.44 72.04 194.77 65.98 200.46 45.5 176.2 26.92 150.03 49.67 142.45 77.73 126.9 103.14 106.43 120.96 87.09 131.2 67.75"/>
      </g>
    </g>
  </g>
</svg>